# xmcd
#
# Track frame offsets: 
#        150
#        13029
#        21696
#        27528
#        36519
#        37626
#        48372
#        49857
#        58254
#        72348
#        85065
#        85605
#        93462
#        94731
#        107583
#        108771
#        119328
#        120327
#        130938
#        132072
#        142305
#        143223
#        154779
#        155616
#        164148
#        164661
#        173571
#        176784
#        184749
#        187881
#        199167
#        210129
#        218661
#        227922
#        248550
#        258945
#        262914
#
# Disc length: 3631 seconds
#
# Revision: 0
# Processed by: cddbd v1.5.2PL0 Copyright (c) Steve Scherf et al.
# Submitted via: ExactAudioCopy v0.95b3
#
DISCID=080e2d25
DTITLE=The Beatles  - The Days In Their Life - Vol.02  FLAC
DYEAR=1900
DGENRE=
TTITLE0=Narrative
TTITLE1=How Do You Do It
TTITLE2=Narrative
TTITLE3=Please Please Me
TTITLE4=Narrative
TTITLE5=Ask Me Why
TTITLE6=Narrative
TTITLE7=How Do You Do It (Gerry and The Pacemakers)
TTITLE8=Narrative
TTITLE9=I Saw Her Standing There
TTITLE10=Narrative
TTITLE11=Misery
TTITLE12=Narrative
TTITLE13=Anna
TTITLE14=Narrative
TTITLE15=Chains
TTITLE16=Narrative
TTITLE17=Boys
TTITLE18=Narrative
TTITLE19=Love Me Do
TTITLE20=Narrative
TTITLE21=Baby It's You
TTITLE22=Narrative
TTITLE23=Do You Want To Know A Secret
TTITLE24=Narrative
TTITLE25=A Taste Of Honey
TTITLE26=Narrative
TTITLE27=There's A Place
TTITLE28=Narrative
TTITLE29=Twist And Shout
TTITLE30=Narrative
TTITLE31=From Me To You
TTITLE32=NarrativeThank You Girl
TTITLE33=Narrative
TTITLE34=She Loves You
TTITLE35=Narrative
TTITLE36=I'll Get You
EXTD=
EXTT0=
EXTT1=
EXTT2=
EXTT3=
EXTT4=
EXTT5=
EXTT6=
EXTT7=
EXTT8=
EXTT9=
EXTT10=
EXTT11=
EXTT12=
EXTT13=
EXTT14=
EXTT15=
EXTT16=
EXTT17=
EXTT18=
EXTT19=
EXTT20=
EXTT21=
EXTT22=
EXTT23=
EXTT24=
EXTT25=
EXTT26=
EXTT27=
EXTT28=
EXTT29=
EXTT30=
EXTT31=
EXTT32=
EXTT33=
EXTT34=
EXTT35=
EXTT36=
PLAYORDER=
